<?xml version="1.0" encoding="UTF-8" standalone="no"?>
<svg
   width="1024"
   height="1024"
   viewBox="0 0 1024 1024"
   version="1.1"
   id="svg15"
   sodipodi:docname="llama-sidebar.svg"
   inkscape:version="1.4.4 (dcaf3e7d9e, 2026-05-05)"
   xmlns:inkscape="http://www.inkscape.org/namespaces/inkscape"
   xmlns:sodipodi="http://sodipodi.sourceforge.net/DTD/sodipodi-0.dtd"
   xmlns="http://www.w3.org/2000/svg"
   xmlns:svg="http://www.w3.org/2000/svg">
  <defs
     id="defs15" />
  <sodipodi:namedview
     id="namedview15"
     pagecolor="#ffffff"
     bordercolor="#000000"
     borderopacity="0.25"
     inkscape:showpageshadow="2"
     inkscape:pageopacity="0.0"
     inkscape:pagecheckerboard="0"
     inkscape:deskcolor="#d1d1d1"
     showgrid="false"
     inkscape:zoom="0.5"
     inkscape:cx="195"
     inkscape:cy="532"
     inkscape:window-width="1366"
     inkscape:window-height="736"
     inkscape:window-x="0"
     inkscape:window-y="0"
     inkscape:window-maximized="1"
     inkscape:current-layer="svg15" />
  <!-- Sparkle -->
  <!-- Llama -->
  <!-- Network graph -->
  <path
     d="M 91.99999,992.57206 H 619.12747 L 531.28635,650.58837 456.93439,614.61412 401.0009,573.98236 221.82254,395.62216 164.0858,683.20379 v 150.17877 z"
     id="path2"
     sodipodi:nodetypes="ccccccccc"
     style="fill:#000000;stroke-width:1.50179" />
  <path
     d="M 260.20021,364.8248 318.76993,208.63888 461.43976,31.427932 416.38613,301.74972 547.04166,270.21218 614.62211,35.933295 l 45.05363,49.558994 -94.61262,226.769941 76.59117,3.00358 -58.56972,42.05005 90.10726,10.51252 -55.56614,30.03575 210.25027,87.10369 100.61978,69.08223 -34.54112,81.09654 L 737.7687,596.10011 536.52915,635.14659 384.91722,566.6107 221.81312,395.6246 Z"
     id="path3"
     sodipodi:nodetypes="cccccccccccccccccccc"
     style="fill:#000000;stroke-width:1.50179" />
  <path
     d="m 826.44281,533.21611 c 49.55899,0 38.14146,-23.23782 102.38039,20.24234 14.73856,9.38221 -24.8681,90.53838 -55.89361,102.3616 -75.79991,-18.21995 -76.04482,-18.12069 -117.13944,-31.18598 -9.3929,-19.58817 -7.53954,-34.7322 1.50179,-55.56614 12.0143,-15.01788 48.12584,-35.85182 69.15087,-35.85182 z"
     id="path4"
     sodipodi:nodetypes="sccccs"
     style="fill:#000000;stroke-width:1.50179" />
  <path
     d="m 733.76699,584.67775 c 19.45461,17.76543 106.1845,86.38558 142.03632,72.86949 -21.02503,37.54469 -59.94165,40.67443 -101.9917,16.64583 z"
     id="path5"
     sodipodi:nodetypes="cccc"
     style="fill:#000000;stroke-width:1.50179" />
  <path
     d="m 360.28421,221.24884 63.99331,-96.35445 -33.04139,175.92176 -41.32702,38.77434 z"
     id="path6"
     style="fill:#ffffff;stroke-width:1.50179"
     sodipodi:nodetypes="ccccc" />
  <path
     d="M 498.98446,183.10849 614.78629,37.366451 549.9497,270.0749 492.40404,286.85428 Z"
     id="path7"
     sodipodi:nodetypes="ccccc"
     style="fill:#000000;stroke-width:1.50179" />
  <path
     d="m 422.29774,389.85698 77.40933,2 29.79086,21.78938 -71.44392,11.72767 -56.30358,-17.09293 z"
     fill="#ffffff"
     id="path8"
     sodipodi:nodetypes="cccccc"
     style="stroke-width:1.50179" />
  <path
     d="m 827.48733,153.64209 c 15.01788,45.05363 30.03575,60.0715 75.08939,75.08939 -45.05364,15.01786 -60.07151,30.03575 -75.08939,75.08938 -15.01788,-45.05363 -30.03574,-60.07152 -75.08937,-75.08938 45.05363,-15.01789 60.07149,-30.03576 75.08937,-75.08939 z"
     fill="#000000"
     id="path1-5"
     style="stroke-width:1.50179" />
  <line
     x1="275.21808"
     y1="662.17877"
     x2="345.80212"
     y2="734.26459"
     id="line8"
     style="fill:none;stroke:#ffffff;stroke-width:15.0179;stroke-linecap:round" />
  <line
     x1="275.21808"
     y1="662.17877"
     x2="275.21808"
     y2="867.92371"
     id="line9"
     style="fill:none;stroke:#ffffff;stroke-width:15.0179;stroke-linecap:round" />
  <line
     x1="374.28107"
     y1="792.05273"
     x2="288.68341"
     y2="877.38519"
     id="line10"
     style="fill:none;stroke:#ffffff;stroke-width:13.2143;stroke-linecap:round" />
  <line
     x1="345.80212"
     y1="734.26459"
     x2="489.97372"
     y2="878.43622"
     id="line11"
     style="fill:none;stroke:#ffffff;stroke-width:15.0179;stroke-linecap:round" />
  <circle
     cx="286.5318"
     cy="669.24982"
     r="36.042904"
     id="circle12"
     style="fill:#000000;stroke:#ffffff;stroke-width:15.0179" />
  <circle
     cx="388.22852"
     cy="775.27673"
     r="36.042904"
     id="circle13"
     style="fill:#000000;stroke:#ffffff;stroke-width:15.0179" />
  <circle
     cx="286.5318"
     cy="874.99475"
     r="36.042904"
     id="circle14"
     style="fill:#000000;stroke:#ffffff;stroke-width:15.0179" />
  <circle
     cx="485.28745"
     cy="871.50726"
     r="36.042904"
     id="circle15"
     style="fill:#000000;stroke:#ffffff;stroke-width:15.0179" />
</svg>
