<svg width="1024" height="1024" viewBox="0 0 1024 1024" xmlns="http://www.w3.org/2000/svg">
  <!-- Sparkle -->
  <path d="M695 255
           C705 285 715 295 745 305
           C715 315 705 325 695 355
           C685 325 675 315 645 305
           C675 295 685 285 695 255Z"
        fill="#000000"/>

  <!-- Llama -->
  <g fill="#000000">
    <!-- Neck/body -->
    <path d="
      M252 848
      L603 848
      L552 595
      L495 557
      L410 588
      L345 561
      L300 642
      L300 742
      Z"/>

    <!-- Head -->
    <path d="
      M364 430
      L403 326
      L498 208
      L468 388
      L555 367
      L600 211
      L630 244
      L567 395
      L618 397
      L579 425
      L639 432
      L602 452
      L742 510
      L809 556
      L786 610
      L682 584
      L548 610
      L433 555
      L337 454
      Z"/>

    <!-- Nose -->
    <path d="
      M727 544
      C760 544 786 560 796 582
      C803 600 795 618 772 624
      C744 632 712 622 694 603
      C684 593 685 578 695 566
      C703 556 713 544 727 544 Z"/>

    <!-- Lower jaw -->
    <path d="
      M703 611
      C730 624 758 629 780 620
      C766 645 734 652 706 636 Z"/>

    <!-- Ear left -->
    <path d="
      M401 325
      L487 242
      L455 389
      L423 355 Z"/>

    <!-- Ear right -->
    <path d="
      M523 309
      L587 226
      L556 395
      L513 394 Z"/>

    <!-- Eye -->
    <path d="
      M471 448
      L560 448
      L548 470
      L492 475
      L462 458 Z" fill="#FFFFFF"/>
  </g>

  <!-- Network graph -->
  <g stroke="#FFFFFF" stroke-width="10" fill="none" stroke-linecap="round">
    <line x1="374" y1="628" x2="421" y2="676"/>
    <line x1="374" y1="628" x2="374" y2="765"/>
    <line x1="421" y1="676" x2="374" y2="765"/>
    <line x1="421" y1="676" x2="517" y2="772"/>
    <line x1="421" y1="676" x2="516" y2="676"/>
  </g>

  <g fill="#000000" stroke="#FFFFFF" stroke-width="10">
    <circle cx="374" cy="628" r="24"/>
    <circle cx="421" cy="676" r="24"/>
    <circle cx="374" cy="765" r="24"/>
    <circle cx="517" cy="772" r="24"/>
  </g>
</svg>